<?xml version="1.0" encoding="UTF-8"?>
<svg id="Capa_1" data-name="Capa 1" xmlns="http://www.w3.org/2000/svg" viewBox="0 0 96 60">
  <defs>
    <style>
      .cls-1 {
        fill: #fff;
        stroke: gray;
        stroke-miterlimit: 10;
        stroke-width: .75px;
      }

      .cls-2 {
        fill: #006fcf;
        stroke-width: 0px;
      }
    </style>
  </defs>
  <rect class="cls-1" width="96" height="60" rx="7.15" ry="7.15"/>
  <path class="cls-2" d="m67.2,14.92l1.95-5.15h8.9V.4H17.25v59.2h60.79v-9.35h-8.39l-3.1-3.53-3.22,3.53h-23.83v-18.81h-7.86l9.83-21.67h9.56l2.31,4.91v-4.91h11.87l1.99,5.15h0Zm-6.71,3.41l-.02-2.07.81,2.07,3.95,10.28h3.93l3.97-10.28.77-2.05v12.33h4.13v-15.79h-6.87l-3.12,8.01-.83,2.17-.85-2.17-3.14-8.01h-6.87v15.79h4.13v-10.28h0Zm-8.9,10.28h4.76l-7.13-15.79h-5.53l-7.17,15.79h4.7l1.26-3.04h7.86l1.26,3.04h0Zm-6-10.44l.81-1.97.81,1.97,1.68,3.99h-4.98l1.68-3.99h0Zm-2.78,13.28v15.73h13.54v-3.41h-9.4v-2.74h9.22v-3.39h-9.22v-2.76h9.4v-3.41h-13.54Zm28.59,15.73h5.37l-7.58-7.89,7.58-7.83h-5.29l-4.88,5.11-4.86-5.11h-5.39l7.56,7.89-7.56,7.83h5.23l4.92-5.13,4.9,5.13h0Zm2.05-7.91l4.58,4.54v-9.02l-4.58,4.48h0Z"/>
</svg>