<?xml version="1.0" encoding="UTF-8"?>
<svg id="Capa_1" data-name="Capa 1" xmlns="http://www.w3.org/2000/svg" xmlns:xlink="http://www.w3.org/1999/xlink" viewBox="0 0 149.5 50">
  <defs>
    <style>
      .cls-1, .cls-2, .cls-3, .cls-4 {
        stroke-width: 0px;
      }

      .cls-2 {
        fill: none;
      }

      .cls-3 {
        fill: #fff;
      }

      .cls-5 {
        clip-path: url(#clippath);
      }

      .cls-4 {
        fill: #a6a6a6;
      }
    </style>
    <clipPath id="clippath">
      <rect class="cls-2" width="149.58" height="50" rx="8.81" ry="8.81"/>
    </clipPath>
  </defs>
  <g class="cls-5">
    <g>
      <g>
        <g>
          <path class="cls-4" d="m137.67,0H11.92C11.46,0,11.01,0,10.55,0c-.38,0-.76,0-1.15.02-.84,0-1.68.08-2.5.22-.83.14-1.63.4-2.38.78-.75.38-1.43.88-2.02,1.47-.6.59-1.09,1.28-1.47,2.03-.38.75-.64,1.55-.78,2.38-.14.83-.21,1.66-.22,2.5-.01.38-.01.77-.02,1.15v28.89c0,.39,0,.76.02,1.15,0,.84.08,1.68.22,2.5.14.83.4,1.63.78,2.38.38.75.88,1.43,1.47,2.02.59.6,1.27,1.09,2.02,1.47.75.38,1.55.65,2.38.79.83.14,1.67.21,2.5.22.39,0,.77.01,1.15.01.46,0,.91,0,1.37,0h125.75c.45,0,.91,0,1.35,0,.38,0,.77,0,1.15-.01.84-.01,1.67-.08,2.5-.22.83-.14,1.63-.41,2.39-.79.75-.38,1.43-.88,2.02-1.47.6-.59,1.09-1.27,1.48-2.02.38-.75.64-1.55.77-2.38.14-.83.22-1.66.23-2.5,0-.39,0-.76,0-1.15,0-.45,0-.91,0-1.37V11.92c0-.46,0-.91,0-1.36,0-.38,0-.77,0-1.15-.02-.84-.09-1.68-.23-2.5-.14-.83-.4-1.63-.77-2.38-.77-1.5-2-2.73-3.5-3.5-.75-.38-1.56-.64-2.39-.78-.83-.14-1.66-.21-2.5-.22-.38,0-.77-.01-1.15-.02-.45,0-.91,0-1.35,0h0Z"/>
          <path class="cls-1" d="m10.56,48.91c-.38,0-.75,0-1.13-.01-.78-.01-1.56-.08-2.34-.2-.72-.12-1.42-.35-2.07-.68-.65-.33-1.24-.76-1.75-1.27-.52-.51-.95-1.1-1.28-1.75-.33-.65-.56-1.35-.68-2.07-.13-.77-.2-1.56-.21-2.34,0-.26-.02-1.14-.02-1.14V10.56s.01-.86.02-1.12c0-.78.08-1.57.21-2.34.12-.72.35-1.42.68-2.08.33-.65.75-1.24,1.27-1.75.51-.52,1.11-.95,1.75-1.28.65-.33,1.35-.56,2.07-.68.78-.13,1.56-.2,2.34-.21l1.13-.02h128.46l1.14.02c.78,0,1.55.08,2.32.2.73.12,1.43.35,2.09.68,1.3.67,2.35,1.73,3.02,3.02.33.65.55,1.34.67,2.06.13.78.2,1.57.22,2.36,0,.35,0,.73,0,1.11,0,.47,0,.91,0,1.36v26.16c0,.45,0,.9,0,1.34,0,.41,0,.78,0,1.16-.01.78-.09,1.55-.21,2.32-.12.73-.34,1.43-.67,2.09-.33.64-.76,1.23-1.27,1.73-.51.52-1.1.95-1.75,1.28-.66.33-1.36.56-2.08.69-.77.13-1.55.19-2.34.2-.37,0-.75.01-1.12.01h-1.35s-127.11,0-127.11,0Z"/>
        </g>
        <g id="_Group_" data-name=" Group ">
          <g id="_Group_2" data-name=" Group 2">
            <g id="_Group_3" data-name=" Group 3">
              <path id="_Path_" data-name=" Path " class="cls-3" d="m30.96,25.38c.03-2.12,1.14-4.08,2.95-5.19-1.14-1.64-2.99-2.63-4.99-2.7-2.1-.22-4.13,1.26-5.2,1.26s-2.74-1.23-4.51-1.2c-2.33.08-4.46,1.37-5.59,3.41-2.42,4.19-.61,10.34,1.7,13.72,1.16,1.66,2.51,3.51,4.28,3.44,1.73-.07,2.38-1.11,4.47-1.11s2.68,1.11,4.49,1.06c1.86-.03,3.03-1.66,4.15-3.34.83-1.18,1.47-2.49,1.9-3.87-2.21-.93-3.65-3.1-3.65-5.5Z"/>
              <path id="_Path_2" data-name=" Path 2" class="cls-3" d="m27.55,15.26c1.01-1.22,1.51-2.78,1.39-4.36-1.55.16-2.98.9-4.01,2.07-1.02,1.16-1.53,2.67-1.43,4.2,1.57.02,3.06-.69,4.05-1.91Z"/>
            </g>
          </g>
          <g>
            <path class="cls-3" d="m52.88,33.92h-5.92l-1.42,4.2h-2.51l5.6-15.52h2.6l5.6,15.52h-2.55l-1.42-4.2Zm-5.3-1.94h4.69l-2.31-6.81h-.06l-2.31,6.81Z"/>
            <path class="cls-3" d="m68.95,32.46c0,3.52-1.88,5.78-4.72,5.78-1.47.08-2.85-.69-3.56-1.98h-.05v5.61h-2.32v-15.06h2.25v1.88h.04c.74-1.28,2.13-2.05,3.6-2,2.87,0,4.77,2.27,4.77,5.78Zm-2.39,0c0-2.29-1.18-3.8-2.99-3.8s-2.97,1.54-2.97,3.8,1.19,3.81,2.97,3.81,2.99-1.5,2.99-3.81Z"/>
            <path class="cls-3" d="m81.41,32.46c0,3.52-1.88,5.78-4.72,5.78-1.47.08-2.85-.69-3.56-1.98h-.05v5.61h-2.32v-15.06h2.25v1.88h.04c.74-1.28,2.13-2.05,3.6-2,2.87,0,4.77,2.27,4.77,5.78Zm-2.39,0c0-2.29-1.18-3.8-2.99-3.8s-2.97,1.54-2.97,3.8,1.19,3.81,2.97,3.81,2.99-1.5,2.99-3.81h0Z"/>
            <path class="cls-3" d="m89.64,33.8c.17,1.54,1.67,2.55,3.71,2.55s3.37-1.01,3.37-2.4c0-1.2-.85-1.93-2.86-2.42l-2.01-.48c-2.85-.69-4.17-2.02-4.17-4.18,0-2.68,2.33-4.52,5.65-4.52s5.53,1.84,5.6,4.52h-2.34c-.14-1.55-1.42-2.48-3.29-2.48s-3.15.95-3.15,2.32c0,1.1.82,1.74,2.82,2.24l1.71.42c3.18.75,4.51,2.03,4.51,4.3,0,2.9-2.31,4.72-5.99,4.72-3.44,0-5.77-1.78-5.92-4.58h2.38Z"/>
            <path class="cls-3" d="m104.18,24.12v2.68h2.15v1.84h-2.15v6.24c0,.97.43,1.42,1.38,1.42.26,0,.51-.02.76-.05v1.83c-.43.08-.86.12-1.29.11-2.29,0-3.18-.86-3.18-3.06v-6.49h-1.65v-1.84h1.65v-2.68h2.33Z"/>
            <path class="cls-3" d="m107.58,32.46c0-3.56,2.1-5.8,5.37-5.8s5.37,2.24,5.37,5.8-2.08,5.8-5.37,5.8-5.37-2.23-5.37-5.8Zm8.37,0c0-2.44-1.12-3.88-3-3.88s-3,1.45-3,3.88,1.12,3.88,3,3.88,3-1.43,3-3.88h0Z"/>
            <path class="cls-3" d="m120.23,26.8h2.22v1.93h.05c.31-1.24,1.45-2.09,2.72-2.04.27,0,.53.03.8.09v2.17c-.34-.1-.69-.15-1.04-.14-1.29-.05-2.38.95-2.43,2.24,0,.12,0,.24.01.36v6.71h-2.32v-11.32Z"/>
            <path class="cls-3" d="m136.73,34.8c-.31,2.05-2.31,3.46-4.87,3.46-3.29,0-5.34-2.21-5.34-5.74s2.05-5.85,5.24-5.85,5.1,2.15,5.1,5.58v.8h-7.99v.14c-.14,1.62,1.05,3.05,2.68,3.2.12.01.25.01.37,0,1.13.11,2.19-.54,2.61-1.59h2.21Zm-7.85-3.38h5.66c.08-1.5-1.07-2.79-2.57-2.87-.07,0-.14,0-.21,0-1.58,0-2.87,1.27-2.88,2.85,0,0,0,.02,0,.02Z"/>
          </g>
        </g>
      </g>
      <g id="_Group_4" data-name=" Group 4">
        <g>
          <path class="cls-3" d="m44.28,14.65c0-2.42,1.29-3.91,3.36-3.91,1.55-.08,2.9,1.05,3.1,2.58h-1.15c-.2-.91-1.02-1.54-1.95-1.5-1.34,0-2.18,1.09-2.18,2.83s.84,2.83,2.18,2.83c.89.07,1.71-.51,1.94-1.37h1.15c-.23,1.5-1.58,2.57-3.1,2.45-2.07,0-3.36-1.49-3.36-3.91Z"/>
          <path class="cls-3" d="m52.01,15.56c-.14-1.47.93-2.77,2.4-2.91,1.47-.14,2.77.93,2.91,2.4.02.17.02.34,0,.51.14,1.47-.93,2.77-2.4,2.91-1.47.14-2.77-.93-2.91-2.4-.02-.17-.02-.35,0-.52Zm4.17,0c0-1.22-.55-1.93-1.51-1.93s-1.51.71-1.51,1.93.54,1.94,1.51,1.94c.96,0,1.51-.71,1.51-1.94Z"/>
          <path class="cls-3" d="m58.81,12.74h1.07v.89h.08c.29-.66.96-1.06,1.68-1,1.01-.08,1.89.68,1.96,1.69.01.14,0,.27-.01.41v3.64h-1.11v-3.36c0-.9-.39-1.35-1.21-1.35-.71-.03-1.32.52-1.35,1.23,0,.07,0,.13,0,.2v3.29h-1.11v-5.63Z"/>
          <path class="cls-3" d="m67.37,12.63c1.27,0,2.09.59,2.2,1.58h-1.07c-.1-.41-.51-.68-1.14-.68s-1.09.29-1.09.73c0,.34.28.55.89.69l.93.22c1.07.25,1.57.71,1.57,1.54,0,1.06-.99,1.77-2.33,1.77s-2.21-.6-2.31-1.6h1.11c.2.49.7.78,1.22.7.69,0,1.18-.31,1.18-.76,0-.34-.26-.55-.83-.69l-.98-.23c-1.07-.25-1.57-.73-1.57-1.57,0-1,.91-1.7,2.19-1.7Z"/>
          <path class="cls-3" d="m71.08,11.8l1.3-1.78h1.3l-1.45,1.78h-1.15Zm.11.94h1.11v5.63h-1.11v-5.63Z"/>
          <path class="cls-3" d="m74.03,18.94h1.14c.09.41.56.67,1.31.67.93,0,1.47-.44,1.47-1.18v-1.08h-.08c-.36.62-1.03.98-1.74.95-1.44,0-2.33-1.11-2.33-2.8s.9-2.84,2.34-2.84c.73-.03,1.41.36,1.77.99h.09v-.9h1.06v5.67c0,1.29-1.01,2.1-2.6,2.1-1.41,0-2.32-.63-2.43-1.59Zm3.94-3.45c0-1.12-.58-1.84-1.53-1.84s-1.49.72-1.49,1.84.54,1.84,1.49,1.84c.95,0,1.53-.71,1.53-1.84Z"/>
          <path class="cls-3" d="m85.58,18.37h-1.07v-.89h-.09c-.29.67-.98,1.07-1.7,1-1.01.07-1.88-.69-1.95-1.69,0-.13,0-.26.01-.39v-3.65h1.11v3.36c0,.91.37,1.34,1.18,1.34.7.07,1.33-.45,1.39-1.15,0-.09,0-.18,0-.27v-3.29h1.11v5.63Z"/>
          <path class="cls-3" d="m92.11,16.85c-.31,1.06-1.34,1.75-2.44,1.63-1.41.04-2.59-1.08-2.62-2.49,0-.14,0-.28.02-.42-.19-1.42.81-2.73,2.23-2.92.12-.02.24-.02.37-.02,1.57,0,2.51,1.07,2.51,2.84v.39h-3.97v.06c-.07.82.54,1.54,1.36,1.61.05,0,.09,0,.14,0,.54.07,1.07-.2,1.34-.68h1.07Zm-3.91-1.81h2.84c.06-.75-.51-1.4-1.25-1.45-.04,0-.09,0-.13,0-.79-.01-1.45.63-1.46,1.42,0,.01,0,.02,0,.04Z"/>
          <path class="cls-3" d="m93.72,10.55h1.11v7.83h-1.11v-7.83Z"/>
          <path class="cls-3" d="m96.38,15.56c-.14-1.47.93-2.77,2.4-2.91s2.77.93,2.91,2.4c.02.17.02.34,0,.51.14,1.47-.93,2.77-2.4,2.91-1.47.14-2.77-.93-2.91-2.4-.02-.17-.02-.35,0-.52Zm4.17,0c0-1.22-.55-1.93-1.51-1.93s-1.51.71-1.51,1.93.54,1.94,1.51,1.94c.96,0,1.51-.71,1.51-1.94Z"/>
          <path class="cls-3" d="m110.99,16.85c-.31,1.06-1.34,1.75-2.44,1.63-1.41.04-2.59-1.08-2.62-2.49,0-.14,0-.28.02-.42-.19-1.42.81-2.73,2.23-2.92.12-.02.24-.02.37-.02,1.57,0,2.51,1.07,2.51,2.84v.39h-3.97v.06c-.07.82.54,1.54,1.36,1.61.05,0,.09,0,.14,0,.54.07,1.07-.2,1.34-.68h1.07Zm-3.91-1.81h2.84c.06-.75-.51-1.4-1.25-1.45-.04,0-.09,0-.13,0-.79-.01-1.45.63-1.46,1.42,0,.01,0,.02,0,.04h0Z"/>
          <path class="cls-3" d="m112.55,12.74h1.07v.89h.08c.29-.66.96-1.06,1.68-1,1.01-.08,1.89.68,1.96,1.69.01.14,0,.27-.01.41v3.64h-1.11v-3.36c0-.9-.39-1.35-1.21-1.35-.71-.03-1.32.52-1.35,1.23,0,.07,0,.13,0,.2v3.29h-1.11v-5.63Z"/>
          <path class="cls-3" d="m126.86,16.85c-.31,1.06-1.34,1.75-2.44,1.63-1.41.04-2.59-1.08-2.62-2.49,0-.14,0-.28.02-.42-.19-1.42.81-2.73,2.23-2.92.12-.02.24-.02.37-.02,1.57,0,2.51,1.07,2.51,2.84v.39h-3.97v.06c-.07.82.54,1.54,1.36,1.61.05,0,.09,0,.14,0,.54.07,1.07-.2,1.34-.68h1.07Zm-3.91-1.81h2.84c.06-.75-.51-1.4-1.25-1.45-.04,0-.09,0-.13,0-.79,0-1.45.63-1.46,1.42,0,.01,0,.02,0,.04h0Z"/>
          <path class="cls-3" d="m128.47,10.55h1.11v7.83h-1.11v-7.83Z"/>
        </g>
      </g>
    </g>
  </g>
</svg>