<?xml version="1.0" encoding="UTF-8"?>
<svg id="Capa_1" data-name="Capa 1" xmlns="http://www.w3.org/2000/svg" viewBox="0 0 60 60">
  <defs>
    <style>
      .cls-1 {
        fill: #fbd3db;
      }

      .cls-1, .cls-2 {
        stroke-width: 0px;
      }

      .cls-2 {
        fill: #fff;
      }
    </style>
  </defs>
  <g>
    <circle class="cls-2" cx="30" cy="30" r="29.5"/>
    <path class="cls-2" d="m30,1c15.99,0,29,13.01,29,29s-13.01,29-29,29S1,45.99,1,30,14.01,1,30,1M30,0h0C13.43,0,0,13.43,0,30h0c0,16.57,13.43,30,30,30h0c16.57,0,30-13.43,30-30h0C60,13.43,46.57,0,30,0h0Z"/>
  </g>
  <path class="cls-1" d="m44.03,37.47l1.41-9.16h-8.79v-5.95c0-2.51,1.23-4.95,5.16-4.95h4v-7.8s-3.63-.62-7.09-.62c-7.24,0-11.97,4.39-11.97,12.33v6.98h-8.05v9.16h8.05v22.53h9.9v-22.53h7.38Z"/>
</svg>