<?xml version="1.0" encoding="UTF-8"?>
<svg id="Capa_1" data-name="Capa 1" xmlns="http://www.w3.org/2000/svg" viewBox="0 0 60 60">
  <defs>
    <style>
      .cls-1 {
        fill: #fbd3db;
      }

      .cls-1, .cls-2 {
        stroke-width: 0px;
      }

      .cls-2 {
        fill: #fff;
      }
    </style>
  </defs>
  <g>
    <circle class="cls-2" cx="30" cy="30" r="29.5"/>
    <path class="cls-2" d="m30,1c15.99,0,29,13.01,29,29s-13.01,29-29,29S1,45.99,1,30,14.01,1,30,1M30,0h0C13.43,0,0,13.43,0,30h0c0,16.57,13.43,30,30,30h0c16.57,0,30-13.43,30-30h0C60,13.43,46.57,0,30,0h0Z"/>
  </g>
  <g>
    <g>
      <path class="cls-1" d="m38.95,53h-18.75c-7.24,0-13.12-5.89-13.12-13.12v-18.75c0-7.24,5.89-13.12,13.12-13.12h18.75c7.24,0,13.12,5.89,13.12,13.12v18.75c0,7.24-5.89,13.12-13.12,13.12ZM20.2,11.75c-5.17,0-9.37,4.21-9.37,9.38v18.75c0,5.17,4.21,9.38,9.37,9.38h18.75c5.17,0,9.38-4.21,9.38-9.38v-18.75c0-5.17-4.21-9.38-9.38-9.38h-18.75Z"/>
      <path class="cls-1" d="m29.58,41.37c-6,0-10.87-4.88-10.87-10.87s4.88-10.88,10.87-10.88,10.88,4.88,10.88,10.88-4.88,10.87-10.88,10.87Zm0-18c-3.93,0-7.12,3.2-7.12,7.13s3.2,7.12,7.12,7.12,7.13-3.2,7.13-7.12-3.2-7.13-7.13-7.13Z"/>
    </g>
    <circle class="cls-1" cx="41.01" cy="18.48" r="2.93"/>
  </g>
</svg>