<?xml version="1.0" encoding="UTF-8"?>
<svg id="Capa_1" data-name="Capa 1" xmlns="http://www.w3.org/2000/svg" viewBox="0 0 96 60">
  <defs>
    <style>
      .cls-1 {
        stroke-width: 0px;
      }

      .cls-2 {
        fill: #fff;
        stroke: gray;
        stroke-miterlimit: 10;
        stroke-width: .5px;
      }
    </style>
  </defs>
  <rect class="cls-2" width="96" height="60" rx="7.15" ry="7.15"/>
  <path class="cls-1" d="m63.15,18.99c-1.82-.66-3.75-1-5.69-.99-6.28,0-10.71,3.16-10.74,7.7-.04,3.34,3.15,5.22,5.56,6.33,2.48,1.15,3.3,1.87,3.3,2.89-.02,1.56-1.98,2.26-3.8,2.26-2.51,0-3.88-.35-5.98-1.22l-.78-.36-.89,5.23c1.53.64,4.28,1.18,7.12,1.23,6.68,0,11.04-3.14,11.09-7.97.05-2.66-1.67-4.68-5.31-6.34-2.21-1.08-3.58-1.8-3.58-2.9,0-.97,1.17-2.01,3.63-2.01,1.63-.04,3.25.27,4.76.9l.59.26.89-5.05-.15.04h-.02Zm16.29-.56h-4.91c-1.53,0-2.68.42-3.34,1.93l-9.43,21.37h6.68l1.33-3.5h8.15c.19.83.78,3.5.78,3.5h5.89l-5.14-23.31h-.01Zm-41.76-.2h6.36l-3.98,23.32h-6.35l3.97-23.33h0Zm-16.15,12.85l.66,3.24,6.22-15.89h6.74l-10.01,23.28h-6.72l-5.49-19.71c-.09-.32-.3-.6-.58-.78-1.98-1.02-4.08-1.8-6.25-2.31l.09-.49h10.24c1.39.05,2.51.49,2.88,1.97l2.24,10.71h0s-.02-.02-.02-.02Zm50.06,2.38l2.54-6.52c-.03.07.52-1.35.84-2.22l.44,2.01,1.47,6.73h-5.29Z"/>
</svg>