<?xml version="1.0" encoding="UTF-8"?>
<svg id="Capa_1" data-name="Capa 1" xmlns="http://www.w3.org/2000/svg" viewBox="0 0 60 60">
  <defs>
    <style>
      .cls-1 {
        fill: #fbd3db;
      }

      .cls-1, .cls-2 {
        stroke-width: 0px;
      }

      .cls-2 {
        fill: #fff;
      }
    </style>
  </defs>
  <g>
    <circle class="cls-2" cx="30" cy="30" r="29.5"/>
    <path class="cls-2" d="m30,1c15.99,0,29,13.01,29,29s-13.01,29-29,29S1,45.99,1,30,14.01,1,30,1M30,0h0C13.43,0,0,13.43,0,30h0c0,16.57,13.43,30,30,30h0c16.57,0,30-13.43,30-30h0C60,13.43,46.57,0,30,0h0Z"/>
  </g>
  <path id="path1009" class="cls-1" d="m12.22,13.39l13.8,18.45-13.89,15h3.13l12.16-13.13,9.82,13.13h10.64l-14.58-19.49,12.93-13.96h-3.13l-11.2,12.1-9.05-12.1h-10.64Zm4.6,2.3h4.89l21.58,28.85h-4.89L16.81,15.69Z"/>
</svg>