<?xml version="1.0" encoding="UTF-8"?>
<svg id="Capa_1" data-name="Capa 1" xmlns="http://www.w3.org/2000/svg" viewBox="0 0 60 60">
  <defs>
    <style>
      .cls-1 {
        fill: #fbd3db;
      }

      .cls-1, .cls-2 {
        stroke-width: 0px;
      }

      .cls-2 {
        fill: #fff;
      }
    </style>
  </defs>
  <g>
    <circle class="cls-2" cx="30" cy="30" r="29.5"/>
    <path class="cls-2" d="m30,1c15.99,0,29,13.01,29,29s-13.01,29-29,29S1,45.99,1,30,14.01,1,30,1M30,0h0C13.43,0,0,13.43,0,30h0c0,16.57,13.43,30,30,30h0c16.57,0,30-13.43,30-30h0C60,13.43,46.57,0,30,0h0Z"/>
  </g>
  <path class="cls-1" d="m47.13,25.47c0-4.2-3.41-7.61-7.61-7.61h-19.46c-4.2,0-7.61,3.41-7.61,7.61v9.06c0,4.2,3.41,7.61,7.61,7.61h19.46c4.2,0,7.61-3.41,7.61-7.61v-9.06Zm-11.44,5.21l-8.73,4.32c-.34.19-1.5-.06-1.5-.45v-8.86c0-.39,1.17-.64,1.51-.45l8.35,4.54c.35.2.72.71.36.9Z"/>
</svg>