<?xml version="1.0" encoding="UTF-8"?>
<svg id="Capa_1" data-name="Capa 1" xmlns="http://www.w3.org/2000/svg" viewBox="0 0 50 50">
  <defs>
    <style>
      .cls-1 {
        fill: #fff;
        stroke-width: 0px;
      }
    </style>
  </defs>
  <path class="cls-1" d="m10.58,50c-1.35,0-2.5-.48-3.46-1.44s-1.44-2.11-1.44-3.46V15.7c0-1.35.48-2.5,1.44-3.46s2.11-1.44,3.46-1.44h4.9c0-2.7.96-5,2.88-6.92s4.23-2.88,6.92-2.88,5,.96,6.92,2.88,2.88,4.23,2.88,6.92h4.9c1.35,0,2.5.48,3.46,1.44s1.44,2.11,1.44,3.46v29.4c0,1.35-.48,2.5-1.44,3.46s-2.11,1.44-3.46,1.44H10.58Zm0-4.9h29.4V15.7h-4.9v4.9c0,.69-.23,1.28-.7,1.75s-1.05.7-1.75.7-1.28-.23-1.75-.7-.7-1.05-.7-1.75v-4.9h-9.8v4.9c0,.69-.23,1.28-.7,1.75s-1.05.7-1.75.7-1.28-.23-1.75-.7-.7-1.05-.7-1.75v-4.9h-4.9v29.4ZM20.38,10.8h9.8c0-1.35-.48-2.5-1.44-3.46s-2.11-1.44-3.46-1.44-2.5.48-3.46,1.44-1.44,2.11-1.44,3.46Zm-9.8,34.3V15.7v29.4Z"/>
</svg>