<?xml version="1.0" encoding="UTF-8"?>
<svg id="Capa_1" data-name="Capa 1" xmlns="http://www.w3.org/2000/svg" viewBox="0 0 500 161">
  <defs>
    <style>
      .cls-1 {
        fill: #fff;
        stroke-width: 0px;
      }
    </style>
  </defs>
  <g id="Layer_2" data-name="Layer 2">
    <g id="Layer_1-2" data-name="Layer 1-2">
      <path class="cls-1" d="m219.53,71.17s-.13,11.04-1.81,30.1c0,0-.75,12.53,2.12,17.14s8.38,1.55,9.16.83,1.4-3.14,1.42-10.26-.15-33.35.8-40.44.25-21.53-1.73-24.4-4.11-6.71-5.92-2.62-3.39,13.2-3.93,25.56-.11,4.11-.11,4.11"/>
      <path class="cls-1" d="m225.83,73.97s32.79,1.14,36.14,7.24c0,0,1.18,1.17-2.73,3.29-2.98,1.62-5.48,2.24-2.91,3.66,0,0,3.78,2.36,6.04,1.68s8.5-2.75,9.25-9.28-7.1-13.14-18.36-15.33c-11.26-2.18-15.84-3.1-29.18-2.16-13.34.94-29.97,6.34-34.63,11.92s-.25,10.28.07,10.77,10.57,16.33,33.82,25.62c0,0,22.57,10.03,48.25,3.09s29.69-22.65,30.7-31.97c1.01-9.31-5.32-34.03-45.94-55.94,0,0-43.22-23.93-79.73-12.43,0,0-2.24-.07-4.4,2.86s-4.08,4.95-2.98,7.21,6.65,3.39,11.56,2.03c0,0,2.28-1.44-.49-2.44-1.38-.54-2.81-.96-4.27-1.25,0,0-1.49-.42,0-1.13s18.14-5.46,47.14,2.88c29,8.34,67.81,33.08,65.94,57.56-1.86,24.48-40.24,24.48-40.24,24.48,0,0-36.19.64-56.86-23.19,0,0-2.72-3.08,1.49-4.83s13.41-4.11,30.29-4.37,2.06.06,2.06.06"/>
      <path class="cls-1" d="m301.56,48.43s11.51-21.94,32.82-20.47c0,0,8.98.16,8.65,8.2-.33,8.04-10.43,17.77-20.86,20.94-10.43,3.17-15.71-.83-20.86-4.18-4.07-2.55-5.96-7.49-4.62-12.11.94-3.44,7.6-16.45,26.63-17.49,0,0,11.92-.6,10.95,6.77,0,0-4.34,3.81-11.92,2.85s-13.58.16-17.38,5.86c-3.81,5.69-.98,7.19,1.97,9.06s21.18,6.04,28.52-7.97c0,0,2.71-6.48-4.17-5.56s-18.29,10.98-21.47,17.63-4.47,8.29-6.34,8.41-3.46-2.8-3.81-3.73-1.49-2.75,1.33-7.26.57-.94.57-.94"/>
      <path class="cls-1" d="m317.45,93.49s.64,15.38-1.56,17-7.06.75-8.32-1.08-1.62-8.38-1.04-18.77,1.15-23.38,3.55-25.37,3.73-.07,4.73,1.36c1.4,1.82,2.19,4.05,2.24,6.35.19,3.28.39,19.02.39,19.02v1.5h.01Z"/>
      <path class="cls-1" d="m360.01,74.5c-8.99.28-25.99,1.2-28.27,2.91,0,0-1.27,1.28.5,1.71s8.94,1.49,12.4,1.77,16.1.65,20.42,6.3c0,0,2.54,2.79,2.28,8.88-.26,6.09-1.37,8.29-3.86,10.38s-24.3,11.09-37.82-4.11c0,0-6.15-7.3,2.53-12.5,0,0,6.38-3.64,21.96,1.21,0,0,4.73,1.93,4.47,3.73s-4.03,3.62-9.28,3.38c-3.23-.21-6.35-1.28-9.04-3.1,0,0-4.79-2.47-6.62-.37s-1.31,3.23.32,4.58,8.02,1.49,8.02,1.49c0,0,17.81-.32,21.03-5.01,0,0,2.33-2.56-.99-4.53s-12.92-3.46-16.57-3.76-16.88-.48-18.75-4.01c0,0-1.75-2.4.41-9.25s17.97-9.32,24.82-9.69c0,0,18.46-.11,21.72,3.73,0,0,.45.67-.16,2.05s-1.17,3.29-4.41,3.73l-5.1.48h-.01Z"/>
      <path class="cls-1" d="m392.92,85.62s5.36,9.47,5.82,9.58c.27.25.65.31.98.16.52-.25.32-3.22.32-3.22,0,0-.83-10.12-5.47-27.57-.4-1.35-.42-2.78-.07-4.14.63-2.03,2.56-1.04,2.56-1.04,0,0,7.78,4.14,11.21,17.06,3.43,12.93.6,24.47-1.01,27.89s-5.64,7.05-10.33,4.58-11.92-18.16-11.92-18.16c0,0-2.73-5.88-3.29-5.81,0,0-.53-1.08-1.1,5.17s-.53,18.63-3.03,20.48c-1.84,1.57-4.6,1.36-6.18-.48-.2-.24-.38-.49-.53-.77-1.35-2.29-1.86-7.62-.75-16.97s3.47-19.18,6.38-22.19,5.09-.75,5.96.08c0,0,3.47,3.46,9.45,13.57l.98,1.77h.02Z"/>
      <path class="cls-1" d="m431.02,78.91l-1.9,5.83c4.18-.25,8.37-.19,12.54.17,1.01,0,1.82.82,1.82,1.83v.18c.01,1.41-.06,2.81-.21,4.21,0,0-.14,1.27-2.07,1.59s-15.65.42-15.65.42l-2.48,7.45s-.84,1.71.95,1.3,16.39-2.73,18.11-2.24c1.98.56,4.1,3.43,3.48,5.63-.89,3.12-15.22,11.31-24.21,10.96,0,0-5.03.36-8.3-6.1s-.67-10.75.14-13.15c.46-1.36,1-2.69,1.62-3.99,0,0-2.09-5.34-.34-7.03,0,0,1-.87,3.86-1.02l3.61-7.15s-4.14-.13-6.33-2.9-2.37-4.19-.54-4.9,18.42-3.43,30.16-2.67c0,0,3.99-.36,7.3,6.71,0,0,1.49,2.8-1.33,3.46s-12.54,1.68-19.37,1.41h-.86Z"/>
      <path class="cls-1" d="m461.9,84.77s-6.92,12.15.07,16.67c6.99,4.52,17.44-.69,19.84-2.8,2.59-2.24,8.68-8.08,7.97-16.06,0,0-.43-4.23-4.69.25s-12.58,13.67-18.28,26.33c-5.7,12.66-10.63,24.14-13.7,42.88,0,0-.47,3.23-3.05,2.11s-7.45-5.22-7.45-11.53,3.32-23.46,12.32-40.44c0,0,16.05-23.43,27.73-29.45,2.6-1.85,6.12-1.75,8.61.25,4.58,3.42,4.64,11.27,4.61,12.03,0,0,0,8.08-3.87,14.02-3.76,5.78-16.65,22.01-31.59,13.98,0,0-12.5-4.87-9.02-21.71,0,0,2.15-12.78,15.41-23.9,0,0,1.53-1.36,2.46-.97s.43,4.7-.47,6.63-1.58,2.73-6.01,10.18l-.88,1.53h0Z"/>
      <path class="cls-1" d="m5.63,106.41c-1.08-.62-1.72-1.8-1.65-3.05-.02-1.92,1.52-3.5,3.44-3.52h.07c.65.01,1.3.19,1.87.5,3.2,2.27,7,3.54,10.92,3.67,3.73,0,5.89-1.58,5.89-4.09v-.15c0-2.98-4.02-3.95-8.47-5.31-5.6-1.58-11.85-3.87-11.85-11.13v-.08c0-7.18,5.96-11.56,13.5-11.56,4.16.07,8.25,1.13,11.92,3.08,1.25.61,2.06,1.87,2.08,3.26,0,1.95-1.6,3.53-3.55,3.52h-.05c-.6.01-1.2-.14-1.72-.43-3.08-1.59-6.25-2.57-8.9-2.57-3.38,0-5.31,1.58-5.31,3.81v.15c0,2.73,4.09,3.88,8.54,5.32,5.54,1.72,11.78,4.23,11.78,11.06v.14c0,7.97-6.18,11.92-14.08,11.92-5.15-.04-10.18-1.62-14.43-4.53h0Z"/>
      <path class="cls-1" d="m42.33,61.74c-.02-2.36,1.87-4.29,4.23-4.31h.07c2.39,0,4.34,1.92,4.38,4.31v16.44c2.44-3.59,5.96-6.71,11.85-6.71,8.55,0,13.5,5.74,13.5,14.57v20.21c0,2.4-1.94,4.34-4.34,4.34s-4.34-1.94-4.34-4.34v-17.6c0-5.89-2.98-9.26-8.11-9.26s-8.55,3.52-8.55,9.41v17.45c0,2.4-1.95,4.34-4.34,4.34s-4.34-1.94-4.34-4.34v-44.53.02Z"/>
      <path class="cls-1" d="m84.13,91.44v-.14c0-10.84,8.62-19.82,20.25-19.82s20.19,8.83,20.19,19.68v.14c0,10.77-8.62,19.75-20.33,19.75-11.56.03-20.11-8.8-20.11-19.6h0Zm31.74,0v-.14c0-6.71-4.81-12.21-11.63-12.21s-11.42,5.46-11.42,12.07v.14c0,6.61,4.81,12.2,11.56,12.2,7.04.03,11.49-5.5,11.49-12.06Z"/>
      <path class="cls-1" d="m132.76,76.25c-.05-2.37,1.83-4.33,4.2-4.38h.11c2.42,0,4.37,1.96,4.38,4.38v2.37c2.79-3.95,6.75-7.11,12.85-7.11,8.98,0,17.67,7.11,17.67,19.68v.14c0,12.57-8.62,19.68-17.67,19.68-6.25,0-10.2-3.16-12.85-6.71v13.41c-.1,2.4-2.13,4.27-4.53,4.17-2.26-.09-4.07-1.91-4.17-4.17v-41.47h0Zm30.38,15.08v-.14c0-7.33-4.96-12.14-10.84-12.14s-11.06,4.88-11.06,12.14v.14c0,7.32,5.17,12.14,11.06,12.14s10.84-4.67,10.84-12.14Z"/>
    </g>
  </g>
</svg>