<?xml version="1.0" encoding="UTF-8"?>
<svg id="Layer_1" data-name="Layer 1" xmlns="http://www.w3.org/2000/svg" viewBox="0 0 64.08 86.88">
  <defs>
    <style>
      .cls-1 {
        stroke-width: 0px;
      }
    </style>
  </defs>
  <path class="cls-1" d="m12.93,32.35c2.05,0,3.94.62,5.56,1.61l22.46-17.2c-.63-1.37-1.01-2.88-1.01-4.48,0-5.91,4.8-10.7,10.72-10.7s10.7,4.79,10.7,10.7-4.79,10.71-10.7,10.71c-2.35,0-4.5-.77-6.27-2.06l-22.14,16.95c.87,1.54,1.39,3.3,1.39,5.19s-.56,3.74-1.46,5.3l22.3,17.39c1.75-1.24,3.87-1.96,6.18-1.96,5.91,0,10.7,4.78,10.7,10.69s-4.79,10.72-10.7,10.72-10.72-4.8-10.72-10.72c0-1.64.4-3.18,1.06-4.57l-22.67-17.67c-1.58.95-3.42,1.52-5.41,1.52-5.91,0-10.7-4.79-10.7-10.7s4.79-10.72,10.7-10.72Z"/>
</svg>